<svg xmlns="http://www.w3.org/2000/svg" viewBox="0 0 128 148" role="img" aria-hidden="true">
    <path d="M44 48 Q64 8 84 48 L80 56 H48 Z" fill="#7c3aed"/>
    <path d="M50 48 Q64 20 78 48" fill="none" stroke="#a78bfa" stroke-width="2"/>
    <circle cx="64" cy="18" r="4" fill="#fde68a"/>
    <ellipse cx="64" cy="52" rx="14" ry="15" fill="#fcd9b6"/>
    <ellipse cx="58" cy="50" rx="3" ry="3.5" fill="#ffffff"/>
    <ellipse cx="70" cy="50" rx="3" ry="3.5" fill="#ffffff"/>
    <circle cx="58" cy="51" r="1.8" fill="#1e293b"/>
    <circle cx="70" cy="51" r="1.8" fill="#1e293b"/>
    <path d="M58 58 Q64 62 70 58" fill="none" stroke="#b45309" stroke-width="2" stroke-linecap="round"/>
    <rect x="48" y="66" width="32" height="32" rx="8" fill="#4c1d95"/>
    <path d="M48 74 H80" stroke="#6d28d9" stroke-width="2"/>
    <rect x="24" y="72" width="36" height="6" rx="2" fill="#a78bfa" transform="rotate(-20 42 75)"/>
    <circle cx="20" cy="68" r="6" fill="#fde68a"/>
    <rect x="50" y="98" width="12" height="22" rx="4" fill="#312e81"/>
    <rect x="66" y="98" width="12" height="22" rx="4" fill="#312e81"/>
    <path d="M18 68 L18 48" stroke="#78350f" stroke-width="4" stroke-linecap="round"/>
  </svg>