<svg xmlns="http://www.w3.org/2000/svg" viewBox="0 0 128 148" role="img" aria-hidden="true"><defs>
    <filter id="charShadow" x="-15%" y="-10%" width="130%" height="130%">
      <feDropShadow dx="0" dy="5" stdDeviation="5" flood-color="#0f172a" flood-opacity="0.22"/>
    </filter>
    <linearGradient id="floor" x1="0" y1="0" x2="0" y2="1">
      <stop offset="0%" stop-color="#e2e8f0" stop-opacity="0"/>
      <stop offset="100%" stop-color="#cbd5e1" stop-opacity="0.35"/>
    </linearGradient>
  </defs><ellipse cx="64" cy="138" rx="34" ry="6" fill="url(#floor)"/><g filter="url(#charShadow)">
    <rect x="54" y="48" width="20" height="28" rx="6" fill="#2563eb"/>
    <circle cx="64" cy="58" r="6" fill="#eff6ff"/>
    <rect x="20" y="58" width="28" height="10" rx="3" fill="#93c5fd"/>
    <rect x="80" y="58" width="28" height="10" rx="3" fill="#93c5fd"/>
    <path d="M48 58 H54 M74 58 H80" stroke="#1e3a8a" stroke-width="3"/>
    <rect x="58" y="76" width="12" height="8" rx="3" fill="#1e3a8a"/>
    <path d="M58 84 L50 108 M70 84 L78 108" stroke="#2563eb" stroke-width="4" stroke-linecap="round"/>
    <ellipse cx="50" cy="110" rx="8" ry="4" fill="#93c5fd"/>
    <ellipse cx="78" cy="110" rx="8" ry="4" fill="#93c5fd"/>
    <path d="M64 36 L64 48" stroke="#1e293b" stroke-width="3"/>
    <circle cx="64" cy="34" r="4" fill="#ef4444"/>
    <path d="M64 24 L68 32 H60 Z" fill="#93c5fd"/>
  </g></svg>